<svg width="38" height="37" viewBox="0 0 38 37" fill="none" xmlns="http://www.w3.org/2000/svg">
<path fill-rule="evenodd" clip-rule="evenodd" d="M30.875 18.5C30.875 19.1386 30.3433 19.6562 29.6875 19.6562L20.1875 19.6562L20.1875 28.9062C20.1875 29.5448 19.6558 30.0625 19 30.0625C18.3442 30.0625 17.8125 29.5448 17.8125 28.9062L17.8125 19.6562L8.3125 19.6562C7.65666 19.6562 7.125 19.1386 7.125 18.5C7.125 17.8614 7.65666 17.3437 8.3125 17.3437L17.8125 17.3437L17.8125 8.09375C17.8125 7.45517 18.3442 6.9375 19 6.9375C19.6558 6.9375 20.1875 7.45517 20.1875 8.09375L20.1875 17.3437L29.6875 17.3437C30.3433 17.3437 30.875 17.8614 30.875 18.5Z" fill="#8493B2"/>
</svg>
