<svg width="25" height="24" viewBox="0 0 25 24" fill="none" xmlns="http://www.w3.org/2000/svg">
<path d="M12.5 14C13.6046 14 14.5 13.1046 14.5 12C14.5 10.8954 13.6046 10 12.5 10C11.3954 10 10.5 10.8954 10.5 12C10.5 13.1046 11.3954 14 12.5 14Z" stroke="#8493B2" stroke-width="1.5" stroke-linecap="round" stroke-linejoin="round"/>
<path d="M20.5 18C21.76 16.33 22.5 14.25 22.5 12C22.5 9.75 21.76 7.67 20.5 6" stroke="#8493B2" stroke-width="1.5" stroke-linecap="round" stroke-linejoin="round"/>
<path d="M4.5 6C3.24 7.67 2.5 9.75 2.5 12C2.5 14.25 3.24 16.33 4.5 18" stroke="#8493B2" stroke-width="1.5" stroke-linecap="round" stroke-linejoin="round"/>
<path d="M17.3008 15.6004C18.0508 14.6004 18.5008 13.3504 18.5008 12.0004C18.5008 10.6504 18.0508 9.40039 17.3008 8.40039" stroke="#8493B2" stroke-width="1.5" stroke-linecap="round" stroke-linejoin="round"/>
<path d="M7.70001 8.40039C6.95001 9.40039 6.5 10.6504 6.5 12.0004C6.5 13.3504 6.95001 14.6004 7.70001 15.6004" stroke="#8493B2" stroke-width="1.5" stroke-linecap="round" stroke-linejoin="round"/>
</svg>
