<svg width="43" height="43" viewBox="0 0 43 43" fill="none" xmlns="http://www.w3.org/2000/svg">
<path fill-rule="evenodd" clip-rule="evenodd" d="M27.842 14.5842C28.2081 14.9503 28.2081 15.5439 27.842 15.91L22.5387 21.2133L27.842 26.5166C28.2081 26.8827 28.2081 27.4763 27.842 27.8425C27.4759 28.2086 26.8823 28.2086 26.5162 27.8425L21.2129 22.5392L15.9096 27.8425C15.5435 28.2086 14.9499 28.2086 14.5838 27.8425C14.2176 27.4763 14.2176 26.8827 14.5838 26.5166L19.8871 21.2133L14.5838 15.91C14.2176 15.5439 14.2176 14.9503 14.5838 14.5842C14.9499 14.2181 15.5435 14.2181 15.9096 14.5842L21.2129 19.8875L26.5162 14.5842C26.8823 14.2181 27.4759 14.2181 27.842 14.5842Z" fill="#1B2436"/>
</svg>
