<svg width="230" height="187" viewBox="0 0 230 187" fill="none" xmlns="http://www.w3.org/2000/svg">
<path d="M50.48 184.144C49.616 184.144 48.908 183.908 48.356 183.436C47.812 182.964 47.532 182.392 47.516 181.72H48.632C48.68 182.16 48.884 182.5 49.244 182.74C49.612 182.98 50.02 183.1 50.468 183.1C50.932 183.1 51.316 182.984 51.62 182.752C51.924 182.52 52.076 182.212 52.076 181.828C52.076 181.18 51.672 180.704 50.864 180.4L49.688 179.968C49.016 179.736 48.52 179.428 48.2 179.044C47.888 178.66 47.728 178.168 47.72 177.568C47.72 176.888 47.96 176.348 48.44 175.948C48.928 175.54 49.552 175.336 50.312 175.336C51.112 175.336 51.744 175.568 52.208 176.032C52.68 176.488 52.944 177.024 53 177.64H51.896C51.792 177.216 51.592 176.9 51.296 176.692C51.008 176.484 50.672 176.38 50.288 176.38C49.872 176.38 49.524 176.484 49.244 176.692C48.972 176.9 48.836 177.18 48.836 177.532C48.836 177.884 48.932 178.164 49.124 178.372C49.316 178.58 49.628 178.76 50.06 178.912L51.152 179.308C51.824 179.548 52.332 179.868 52.676 180.268C53.02 180.66 53.192 181.168 53.192 181.792C53.192 182.504 52.94 183.076 52.436 183.508C51.932 183.932 51.28 184.144 50.48 184.144ZM57.0266 184.06C56.4746 184.06 56.0306 183.904 55.6946 183.592C55.3586 183.28 55.1906 182.824 55.1906 182.224V178.948H53.9186V178H55.1906V176.332H56.2226V178H57.9506V178.948H56.2226V182.092C56.2226 182.468 56.3026 182.732 56.4626 182.884C56.6226 183.036 56.8746 183.112 57.2186 183.112C57.5226 183.112 57.7666 183.072 57.9506 182.992V183.916C57.6626 184.012 57.3546 184.06 57.0266 184.06ZM61.6588 184.12C60.8268 184.12 60.1268 183.816 59.5588 183.208C58.9988 182.6 58.7188 181.864 58.7188 181C58.7188 180.136 58.9988 179.4 59.5588 178.792C60.1268 178.184 60.8268 177.88 61.6588 177.88C62.0988 177.88 62.5068 177.98 62.8828 178.18C63.2668 178.372 63.5628 178.62 63.7708 178.924V178H64.8028V184H63.7708V183.076C63.5628 183.38 63.2668 183.632 62.8828 183.832C62.5068 184.024 62.0988 184.12 61.6588 184.12ZM61.8148 183.172C62.4068 183.172 62.8948 182.964 63.2788 182.548C63.6628 182.132 63.8548 181.616 63.8548 181C63.8548 180.384 63.6628 179.868 63.2788 179.452C62.8948 179.036 62.4068 178.828 61.8148 178.828C61.2148 178.828 60.7228 179.036 60.3388 179.452C59.9548 179.868 59.7628 180.384 59.7628 181C59.7628 181.616 59.9548 182.132 60.3388 182.548C60.7228 182.964 61.2148 183.172 61.8148 183.172ZM66.7454 184V178H67.7774V179.164C67.8894 178.796 68.1054 178.5 68.4254 178.276C68.7534 178.052 69.0974 177.94 69.4574 177.94C69.6334 177.94 69.7894 177.956 69.9254 177.988V179.056C69.7814 178.992 69.5934 178.96 69.3614 178.96C68.9454 178.96 68.5774 179.14 68.2574 179.5C67.9374 179.86 67.7774 180.368 67.7774 181.024V184H66.7454ZM73.468 184.06C72.916 184.06 72.472 183.904 72.136 183.592C71.8 183.28 71.632 182.824 71.632 182.224V178.948H70.36V178H71.632V176.332H72.664V178H74.392V178.948H72.664V182.092C72.664 182.468 72.744 182.732 72.904 182.884C73.064 183.036 73.316 183.112 73.66 183.112C73.964 183.112 74.208 183.072 74.392 182.992V183.916C74.104 184.012 73.796 184.06 73.468 184.06ZM81.7488 184.12C81.3088 184.12 80.8968 184.024 80.5128 183.832C80.1368 183.632 79.8448 183.38 79.6368 183.076V184H78.6048V175H79.6368V178.924C79.8448 178.62 80.1368 178.372 80.5128 178.18C80.8968 177.98 81.3088 177.88 81.7488 177.88C82.5808 177.88 83.2768 178.184 83.8368 178.792C84.4048 179.4 84.6888 180.136 84.6888 181C84.6888 181.864 84.4048 182.6 83.8368 183.208C83.2768 183.816 82.5808 184.12 81.7488 184.12ZM80.1288 182.548C80.5128 182.964 81.0008 183.172 81.5928 183.172C82.1848 183.172 82.6728 182.964 83.0568 182.548C83.4408 182.132 83.6328 181.616 83.6328 181C83.6328 180.384 83.4408 179.868 83.0568 179.452C82.6728 179.036 82.1848 178.828 81.5928 178.828C81.0008 178.828 80.5128 179.036 80.1288 179.452C79.7448 179.868 79.5528 180.384 79.5528 181C79.5528 181.616 79.7448 182.132 80.1288 182.548ZM87.6422 186.508H86.4902L87.7982 183.688L85.1702 178H86.3102L88.3742 182.56L90.4262 178H91.5782L87.6422 186.508ZM97.7057 184.12C96.8737 184.12 96.1737 183.816 95.6057 183.208C95.0457 182.6 94.7657 181.864 94.7657 181C94.7657 180.136 95.0457 179.4 95.6057 178.792C96.1737 178.184 96.8737 177.88 97.7057 177.88C98.1457 177.88 98.5537 177.98 98.9297 178.18C99.3137 178.372 99.6097 178.62 99.8177 178.924V178H100.85V184H99.8177V183.076C99.6097 183.38 99.3137 183.632 98.9297 183.832C98.5537 184.024 98.1457 184.12 97.7057 184.12ZM97.8617 183.172C98.4537 183.172 98.9417 182.964 99.3257 182.548C99.7097 182.132 99.9017 181.616 99.9017 181C99.9017 180.384 99.7097 179.868 99.3257 179.452C98.9417 179.036 98.4537 178.828 97.8617 178.828C97.2617 178.828 96.7697 179.036 96.3857 179.452C96.0017 179.868 95.8097 180.384 95.8097 181C95.8097 181.616 96.0017 182.132 96.3857 182.548C96.7697 182.964 97.2617 183.172 97.8617 183.172ZM105.264 184.12C104.432 184.12 103.732 183.816 103.164 183.208C102.604 182.6 102.324 181.864 102.324 181C102.324 180.136 102.604 179.4 103.164 178.792C103.732 178.184 104.432 177.88 105.264 177.88C105.704 177.88 106.112 177.98 106.488 178.18C106.872 178.372 107.168 178.62 107.376 178.924V175H108.408V184H107.376V183.076C107.168 183.38 106.872 183.632 106.488 183.832C106.112 184.024 105.704 184.12 105.264 184.12ZM105.42 183.172C106.012 183.172 106.5 182.964 106.884 182.548C107.268 182.132 107.46 181.616 107.46 181C107.46 180.384 107.268 179.868 106.884 179.452C106.5 179.036 106.012 178.828 105.42 178.828C104.82 178.828 104.328 179.036 103.944 179.452C103.56 179.868 103.368 180.384 103.368 181C103.368 181.616 103.56 182.132 103.944 182.548C104.328 182.964 104.82 183.172 105.42 183.172ZM112.823 184.12C111.991 184.12 111.291 183.816 110.723 183.208C110.163 182.6 109.883 181.864 109.883 181C109.883 180.136 110.163 179.4 110.723 178.792C111.291 178.184 111.991 177.88 112.823 177.88C113.263 177.88 113.671 177.98 114.047 178.18C114.431 178.372 114.727 178.62 114.935 178.924V175H115.967V184H114.935V183.076C114.727 183.38 114.431 183.632 114.047 183.832C113.671 184.024 113.263 184.12 112.823 184.12ZM112.979 183.172C113.571 183.172 114.059 182.964 114.443 182.548C114.827 182.132 115.019 181.616 115.019 181C115.019 180.384 114.827 179.868 114.443 179.452C114.059 179.036 113.571 178.828 112.979 178.828C112.379 178.828 111.887 179.036 111.503 179.452C111.119 179.868 110.927 180.384 110.927 181C110.927 181.616 111.119 182.132 111.503 182.548C111.887 182.964 112.379 183.172 112.979 183.172ZM118.954 176.188C118.818 176.324 118.646 176.392 118.438 176.392C118.23 176.392 118.054 176.324 117.91 176.188C117.766 176.044 117.694 175.868 117.694 175.66C117.694 175.46 117.766 175.288 117.91 175.144C118.054 175 118.23 174.928 118.438 174.928C118.646 174.928 118.818 175 118.954 175.144C119.09 175.288 119.158 175.46 119.158 175.66C119.158 175.868 119.09 176.044 118.954 176.188ZM117.91 184V178H118.942V184H117.91ZM120.898 184V178H121.93V178.924C122.338 178.228 122.974 177.88 123.838 177.88C124.518 177.88 125.066 178.1 125.482 178.54C125.898 178.98 126.106 179.568 126.106 180.304V184H125.086V180.46C125.086 179.956 124.958 179.56 124.702 179.272C124.446 178.976 124.102 178.828 123.67 178.828C123.174 178.828 122.758 179.024 122.422 179.416C122.094 179.808 121.93 180.344 121.93 181.024V184H120.898ZM130.604 186.628C129.812 186.628 129.152 186.432 128.624 186.04C128.104 185.656 127.796 185.16 127.7 184.552H128.708C128.972 185.328 129.612 185.716 130.628 185.716C131.196 185.716 131.652 185.532 131.996 185.164C132.348 184.804 132.524 184.296 132.524 183.64V182.932C132.308 183.252 132.016 183.508 131.648 183.7C131.28 183.892 130.876 183.988 130.436 183.988C129.596 183.988 128.896 183.696 128.336 183.112C127.776 182.52 127.496 181.792 127.496 180.928C127.496 180.072 127.776 179.352 128.336 178.768C128.904 178.176 129.604 177.88 130.436 177.88C130.876 177.88 131.28 177.976 131.648 178.168C132.016 178.36 132.308 178.612 132.524 178.924V178H133.556V183.628C133.556 184.588 133.276 185.328 132.716 185.848C132.164 186.368 131.46 186.628 130.604 186.628ZM129.116 182.44C129.492 182.832 129.98 183.028 130.58 183.028C131.18 183.028 131.668 182.832 132.044 182.44C132.42 182.04 132.608 181.536 132.608 180.928C132.608 180.32 132.416 179.82 132.032 179.428C131.656 179.028 131.172 178.828 130.58 178.828C129.988 178.828 129.5 179.028 129.116 179.428C128.74 179.82 128.552 180.32 128.552 180.928C128.552 181.536 128.74 182.04 129.116 182.44ZM140.866 184.12C140.034 184.12 139.334 183.816 138.766 183.208C138.206 182.6 137.926 181.864 137.926 181C137.926 180.136 138.206 179.4 138.766 178.792C139.334 178.184 140.034 177.88 140.866 177.88C141.306 177.88 141.714 177.98 142.09 178.18C142.474 178.372 142.77 178.62 142.978 178.924V178H144.01V184H142.978V183.076C142.77 183.38 142.474 183.632 142.09 183.832C141.714 184.024 141.306 184.12 140.866 184.12ZM141.022 183.172C141.614 183.172 142.102 182.964 142.486 182.548C142.87 182.132 143.062 181.616 143.062 181C143.062 180.384 142.87 179.868 142.486 179.452C142.102 179.036 141.614 178.828 141.022 178.828C140.422 178.828 139.93 179.036 139.546 179.452C139.162 179.868 138.97 180.384 138.97 181C138.97 181.616 139.162 182.132 139.546 182.548C139.93 182.964 140.422 183.172 141.022 183.172ZM151.487 186.628C150.695 186.628 150.035 186.432 149.507 186.04C148.987 185.656 148.679 185.16 148.583 184.552H149.591C149.855 185.328 150.495 185.716 151.511 185.716C152.079 185.716 152.535 185.532 152.879 185.164C153.231 184.804 153.407 184.296 153.407 183.64V182.932C153.191 183.252 152.899 183.508 152.531 183.7C152.163 183.892 151.759 183.988 151.319 183.988C150.479 183.988 149.779 183.696 149.219 183.112C148.659 182.52 148.379 181.792 148.379 180.928C148.379 180.072 148.659 179.352 149.219 178.768C149.787 178.176 150.487 177.88 151.319 177.88C151.759 177.88 152.163 177.976 152.531 178.168C152.899 178.36 153.191 178.612 153.407 178.924V178H154.439V183.628C154.439 184.588 154.159 185.328 153.599 185.848C153.047 186.368 152.343 186.628 151.487 186.628ZM149.999 182.44C150.375 182.832 150.863 183.028 151.463 183.028C152.063 183.028 152.551 182.832 152.927 182.44C153.303 182.04 153.491 181.536 153.491 180.928C153.491 180.32 153.299 179.82 152.915 179.428C152.539 179.028 152.055 178.828 151.463 178.828C150.871 178.828 150.383 179.028 149.999 179.428C149.623 179.82 149.435 180.32 149.435 180.928C149.435 181.536 149.623 182.04 149.999 182.44ZM158.506 184.12C157.85 184.12 157.318 183.9 156.91 183.46C156.502 183.012 156.298 182.42 156.298 181.684V178H157.33V181.528C157.33 182.032 157.45 182.432 157.69 182.728C157.938 183.024 158.27 183.172 158.686 183.172C159.166 183.172 159.562 182.976 159.874 182.584C160.194 182.184 160.354 181.648 160.354 180.976V178H161.386V184H160.354V183.076C159.962 183.772 159.346 184.12 158.506 184.12ZM165.887 184.12C165.015 184.12 164.291 183.824 163.715 183.232C163.147 182.64 162.863 181.896 162.863 181C162.863 180.096 163.139 179.352 163.691 178.768C164.251 178.176 164.991 177.88 165.911 177.88C166.839 177.88 167.567 178.208 168.095 178.864C168.623 179.52 168.855 180.324 168.791 181.276H163.907C163.923 181.82 164.123 182.276 164.507 182.644C164.891 183.004 165.355 183.184 165.899 183.184C166.715 183.184 167.295 182.848 167.639 182.176H168.695C168.543 182.736 168.219 183.2 167.723 183.568C167.227 183.936 166.615 184.12 165.887 184.12ZM167.063 179.224C166.735 178.936 166.339 178.792 165.875 178.792C165.411 178.792 164.995 178.932 164.627 179.212C164.267 179.492 164.043 179.908 163.955 180.46H167.699C167.603 179.916 167.391 179.504 167.063 179.224ZM172.213 184.12C171.541 184.12 170.977 183.956 170.521 183.628C170.073 183.3 169.825 182.844 169.777 182.26H170.833C170.897 182.596 171.057 182.844 171.313 183.004C171.577 183.164 171.881 183.244 172.225 183.244C172.569 183.244 172.845 183.176 173.053 183.04C173.269 182.904 173.377 182.708 173.377 182.452C173.377 182.212 173.297 182.016 173.137 181.864C172.985 181.712 172.733 181.588 172.381 181.492L171.517 181.264C170.485 180.992 169.969 180.404 169.969 179.5C169.969 179.012 170.161 178.62 170.545 178.324C170.937 178.028 171.437 177.88 172.045 177.88C172.661 177.88 173.165 178.044 173.557 178.372C173.957 178.692 174.181 179.1 174.229 179.596H173.197C173.117 179.332 172.973 179.124 172.765 178.972C172.565 178.82 172.325 178.744 172.045 178.744C171.749 178.744 171.501 178.812 171.301 178.948C171.109 179.084 171.013 179.264 171.013 179.488C171.013 179.704 171.085 179.88 171.229 180.016C171.373 180.152 171.605 180.264 171.925 180.352L172.885 180.604C173.909 180.86 174.421 181.452 174.421 182.38C174.421 182.956 174.217 183.392 173.809 183.688C173.401 183.976 172.869 184.12 172.213 184.12ZM178.116 184.06C177.564 184.06 177.12 183.904 176.784 183.592C176.448 183.28 176.28 182.824 176.28 182.224V178.948H175.008V178H176.28V176.332H177.312V178H179.04V178.948H177.312V182.092C177.312 182.468 177.392 182.732 177.552 182.884C177.712 183.036 177.964 183.112 178.308 183.112C178.612 183.112 178.856 183.072 179.04 182.992V183.916C178.752 184.012 178.444 184.06 178.116 184.06Z" fill="#8493B2"/>
<path d="M186.515 0H47.6574C41.2666 0 36.0859 5.18071 36.0859 11.5714V150.429C36.0859 156.819 41.2666 162 47.6574 162H186.515C192.905 162 198.086 156.819 198.086 150.429V11.5714C198.086 5.18071 192.905 0 186.515 0Z" fill="#F8FAFF"/>
<g filter="url(#filter0_d_3645_98582)">
<path d="M168 11.5723H11.7857C8.59035 11.5723 6 14.1626 6 17.358V46.2866C6 49.4819 8.59035 52.0723 11.7857 52.0723H168C171.195 52.0723 173.786 49.4819 173.786 46.2866V17.358C173.786 14.1626 171.195 11.5723 168 11.5723Z" fill="white"/>
</g>
<path d="M85.8428 20.8301H55.7571C53.8399 20.8301 52.2856 22.3843 52.2856 24.3015C52.2856 26.2187 53.8399 27.7729 55.7571 27.7729H85.8428C87.76 27.7729 89.3142 26.2187 89.3142 24.3015C89.3142 22.3843 87.76 20.8301 85.8428 20.8301Z" fill="#F8FAFF"/>
<path d="M106.671 35.873H55.7571C53.8399 35.873 52.2856 37.4273 52.2856 39.3445C52.2856 41.2617 53.8399 42.8159 55.7571 42.8159H106.671C108.589 42.8159 110.143 41.2617 110.143 39.3445C110.143 37.4273 108.589 35.873 106.671 35.873Z" fill="#DEE9FC" fill-opacity="0.5"/>
<path d="M37.2426 15.043H15.2569C12.0615 15.043 9.47119 17.6333 9.47119 20.8287V42.8144C9.47119 46.0098 12.0615 48.6001 15.2569 48.6001H37.2426C40.438 48.6001 43.0283 46.0098 43.0283 42.8144V20.8287C43.0283 17.6333 40.438 15.043 37.2426 15.043Z" fill="#1B51BB" fill-opacity="0.5"/>
<path d="M23.614 35.6167H25.9282L25.9537 34.7257C25.9537 33.5546 26.692 33.2491 27.7357 32.9182C28.7827 32.6204 29.7042 31.9898 30.361 31.1217C31.0178 30.2536 31.3741 29.1953 31.3761 28.1068C31.399 27.4422 31.2837 26.7801 31.0375 26.1623C30.7913 25.5446 30.4195 24.9847 29.9457 24.5181C29.4719 24.0515 28.9064 23.6883 28.285 23.4515C27.6635 23.2148 26.9997 23.1096 26.3356 23.1427C25.6336 23.1274 24.9359 23.2548 24.2848 23.5172C23.6336 23.7797 23.0425 24.1717 22.5474 24.6694C22.0522 25.1671 21.6633 25.7603 21.4043 26.4128C21.1453 27.0653 21.0215 27.7637 21.0405 28.4655H23.4334C23.4244 28.078 23.4927 27.6926 23.6345 27.3318C23.7763 26.9711 23.9886 26.6423 24.2591 26.3647C24.5297 26.0871 24.8528 25.8662 25.2098 25.7151C25.5667 25.564 25.9503 25.4857 26.3379 25.4847C26.6874 25.4645 27.0372 25.5197 27.3635 25.6466C27.6898 25.7736 27.985 25.9693 28.2289 26.2205C28.4728 26.4717 28.6598 26.7724 28.7772 27.1023C28.8946 27.4322 28.9395 27.7835 28.909 28.1323C28.8936 28.6968 28.6973 29.2415 28.349 29.6861C28.0007 30.1306 27.5188 30.4516 26.9743 30.6016L26.1342 30.9349C25.3117 31.133 24.5937 31.6329 24.1222 32.3353C23.6507 33.0378 23.4603 33.8917 23.5885 34.728L23.614 35.6167ZM24.7595 41.1177C24.9861 41.1258 25.2121 41.0883 25.424 41.0075C25.6359 40.9268 25.8294 40.8043 25.9932 40.6475C26.1569 40.4906 26.2876 40.3025 26.3774 40.0943C26.4672 39.8861 26.5144 39.662 26.5161 39.4352C26.514 39.2087 26.4667 38.9848 26.3767 38.7769C26.2868 38.5689 26.1561 38.3811 25.9923 38.2245C25.8286 38.0679 25.6352 37.9457 25.4234 37.865C25.2117 37.7844 24.9859 37.747 24.7595 37.7551C24.5331 37.747 24.3074 37.7844 24.0956 37.865C23.8839 37.9457 23.6904 38.0679 23.5267 38.2245C23.363 38.3811 23.2323 38.5689 23.1423 38.7769C23.0524 38.9848 23.005 39.2087 23.003 39.4352C23.0047 39.662 23.0519 39.8861 23.1417 40.0943C23.2315 40.3025 23.3621 40.4906 23.5259 40.6475C23.6897 40.8043 23.8832 40.9268 24.0951 41.0075C24.307 41.0883 24.5329 41.1258 24.7595 41.1177Z" fill="white"/>
<g filter="url(#filter1_d_3645_98582)">
<path d="M61.543 61.3301H217.757C219.292 61.3301 220.763 61.9396 221.848 63.0247C222.933 64.1097 223.543 65.5813 223.543 67.1158V96.0444C223.543 97.5788 222.933 99.0504 221.848 100.135C220.763 101.221 219.292 101.83 217.757 101.83H61.543C60.0086 101.83 58.537 101.221 57.4519 100.135C56.3669 99.0504 55.7573 97.5788 55.7573 96.0444V67.1158C55.7573 65.5813 56.3669 64.1097 57.4519 63.0247C58.537 61.9396 60.0086 61.3301 61.543 61.3301V61.3301Z" fill="white"/>
</g>
<path d="M135.6 70.5859H105.514C103.597 70.5859 102.043 72.1401 102.043 74.0574C102.043 75.9746 103.597 77.5288 105.514 77.5288H135.6C137.517 77.5288 139.072 75.9746 139.072 74.0574C139.072 72.1401 137.517 70.5859 135.6 70.5859Z" fill="#F8FAFF"/>
<path d="M156.429 85.6289H105.514C103.597 85.6289 102.043 87.1831 102.043 89.1003C102.043 91.0176 103.597 92.5718 105.514 92.5718H156.429C158.346 92.5718 159.9 91.0176 159.9 89.1003C159.9 87.1831 158.346 85.6289 156.429 85.6289Z" fill="#DEE9FC" fill-opacity="0.5"/>
<path d="M86.9999 64.8008H65.0142C61.8189 64.8008 59.2285 67.3911 59.2285 70.5865V92.5722C59.2285 95.7676 61.8189 98.3579 65.0142 98.3579H86.9999C90.1953 98.3579 92.7857 95.7676 92.7857 92.5722V70.5865C92.7857 67.3911 90.1953 64.8008 86.9999 64.8008Z" fill="#1B51BB" fill-opacity="0.5"/>
<path d="M73.3713 85.3745H75.6856L75.711 84.4835C75.711 83.3124 76.4493 83.007 77.493 82.676C78.54 82.3782 79.4616 81.7476 80.1184 80.8795C80.7751 80.0114 81.1314 78.9531 81.1334 77.8646C81.1563 77.2 81.041 76.5379 80.7948 75.9202C80.5486 75.3024 80.1768 74.7425 79.703 74.2759C79.2292 73.8093 78.6637 73.4461 78.0423 73.2093C77.4209 72.9726 76.7571 72.8674 76.0929 72.9005C75.391 72.8852 74.6933 73.0126 74.0421 73.275C73.3909 73.5375 72.7998 73.9295 72.3047 74.4272C71.8095 74.9249 71.4207 75.5181 71.1616 76.1706C70.9026 76.8232 70.7788 77.5215 70.7978 78.2233H73.1908C73.1817 77.8358 73.25 77.4504 73.3918 77.0897C73.5336 76.7289 73.746 76.4001 74.0165 76.1225C74.287 75.8449 74.6102 75.624 74.9671 75.4729C75.3241 75.3218 75.7076 75.2435 76.0952 75.2425C76.4447 75.2223 76.7945 75.2775 77.1209 75.4045C77.4472 75.5314 77.7423 75.7271 77.9862 75.9783C78.2302 76.2295 78.4172 76.5302 78.5345 76.8601C78.6519 77.19 78.6968 77.5413 78.6664 77.8901C78.651 78.4546 78.4546 78.9993 78.1063 79.4439C77.758 79.8884 77.2761 80.2094 76.7316 80.3594L75.8915 80.6927C75.069 80.8909 74.351 81.3907 73.8795 82.0931C73.4081 82.7956 73.2176 83.6495 73.3458 84.4858L73.3713 85.3745ZM74.5168 90.8755C74.7435 90.8836 74.9694 90.8461 75.1813 90.7653C75.3932 90.6846 75.5867 90.5621 75.7505 90.4053C75.9142 90.2484 76.0449 90.0603 76.1347 89.8521C76.2245 89.6439 76.2717 89.4198 76.2734 89.193C76.2714 88.9665 76.224 88.7426 76.134 88.5347C76.0441 88.3267 75.9134 88.1389 75.7497 87.9823C75.5859 87.8257 75.3925 87.7035 75.1808 87.6228C74.969 87.5422 74.7433 87.5048 74.5168 87.5129C74.2904 87.5048 74.0647 87.5422 73.8529 87.6228C73.6412 87.7035 73.4478 87.8257 73.284 87.9823C73.1203 88.1389 72.9896 88.3267 72.8997 88.5347C72.8097 88.7426 72.7623 88.9665 72.7603 89.193C72.762 89.4198 72.8092 89.6439 72.899 89.8521C72.9888 90.0603 73.1195 90.2484 73.2832 90.4053C73.447 90.5621 73.6405 90.6846 73.8524 90.7653C74.0643 90.8461 74.2902 90.8836 74.5168 90.8755Z" fill="white"/>
<g filter="url(#filter2_d_3645_98582)">
<path d="M11.7857 111.086H168C169.534 111.086 171.006 111.696 172.091 112.781C173.176 113.866 173.786 115.337 173.786 116.872V145.8C173.786 147.335 173.176 148.806 172.091 149.891C171.006 150.976 169.534 151.586 168 151.586H11.7857C10.2512 151.586 8.77963 150.976 7.6946 149.891C6.60956 148.806 6 147.335 6 145.8V116.872C6 115.337 6.60956 113.866 7.6946 112.781C8.77963 111.696 10.2512 111.086 11.7857 111.086V111.086Z" fill="white"/>
</g>
<path d="M85.8428 120.344H55.7571C53.8399 120.344 52.2856 121.898 52.2856 123.815C52.2856 125.732 53.8399 127.287 55.7571 127.287H85.8428C87.76 127.287 89.3142 125.732 89.3142 123.815C89.3142 121.898 87.76 120.344 85.8428 120.344Z" fill="#F8FAFF"/>
<path d="M106.671 135.387H55.7571C53.8399 135.387 52.2856 136.941 52.2856 138.858C52.2856 140.775 53.8399 142.33 55.7571 142.33H106.671C108.589 142.33 110.143 140.775 110.143 138.858C110.143 136.941 108.589 135.387 106.671 135.387Z" fill="#DEE9FC" fill-opacity="0.5"/>
<path d="M37.2426 114.557H15.2569C12.0615 114.557 9.47119 117.147 9.47119 120.342V142.328C9.47119 145.523 12.0615 148.114 15.2569 148.114H37.2426C40.438 148.114 43.0283 145.523 43.0283 142.328V120.342C43.0283 117.147 40.438 114.557 37.2426 114.557Z" fill="#1B51BB" fill-opacity="0.5"/>
<path d="M23.614 135.13H25.9282L25.9537 134.239C25.9537 133.068 26.692 132.763 27.7357 132.432C28.7827 132.134 29.7042 131.503 30.361 130.635C31.0178 129.767 31.3741 128.709 31.3761 127.62C31.399 126.956 31.2837 126.294 31.0375 125.676C30.7913 125.058 30.4195 124.498 29.9457 124.032C29.4719 123.565 28.9064 123.202 28.285 122.965C27.6635 122.728 26.9997 122.623 26.3356 122.656C25.6336 122.641 24.9359 122.768 24.2848 123.031C23.6336 123.293 23.0425 123.685 22.5474 124.183C22.0522 124.681 21.6633 125.274 21.4043 125.926C21.1453 126.579 21.0215 127.277 21.0405 127.979H23.4334C23.4244 127.592 23.4927 127.206 23.6345 126.846C23.7763 126.485 23.9886 126.156 24.2591 125.878C24.5297 125.601 24.8528 125.38 25.2098 125.229C25.5667 125.078 25.9503 124.999 26.3379 124.998C26.6874 124.978 27.0372 125.033 27.3635 125.16C27.6898 125.287 27.985 125.483 28.2289 125.734C28.4728 125.985 28.6598 126.286 28.7772 126.616C28.8946 126.946 28.9395 127.297 28.909 127.646C28.8936 128.21 28.6973 128.755 28.349 129.2C28.0007 129.644 27.5188 129.965 26.9743 130.115L26.1342 130.449C25.3117 130.647 24.5937 131.147 24.1222 131.849C23.6507 132.551 23.4603 133.405 23.5885 134.242L23.614 135.13ZM24.7595 140.631C24.9861 140.639 25.2121 140.602 25.424 140.521C25.6359 140.44 25.8294 140.318 25.9932 140.161C26.1569 140.004 26.2876 139.816 26.3774 139.608C26.4672 139.4 26.5144 139.176 26.5161 138.949C26.514 138.722 26.4667 138.498 26.3767 138.291C26.2868 138.083 26.1561 137.895 25.9923 137.738C25.8286 137.582 25.6352 137.459 25.4234 137.379C25.2117 137.298 24.9859 137.261 24.7595 137.269C24.5331 137.261 24.3074 137.298 24.0956 137.379C23.8839 137.459 23.6904 137.582 23.5267 137.738C23.363 137.895 23.2323 138.083 23.1423 138.291C23.0524 138.498 23.005 138.722 23.003 138.949C23.0047 139.176 23.0519 139.4 23.1417 139.608C23.2315 139.816 23.3621 140.004 23.5259 140.161C23.6897 140.318 23.8832 140.44 24.0951 140.521C24.307 140.602 24.5329 140.639 24.7595 140.631Z" fill="white"/>
<defs>
<filter id="filter0_d_3645_98582" x="0" y="8.57227" width="179.786" height="52.5" filterUnits="userSpaceOnUse" color-interpolation-filters="sRGB">
<feFlood flood-opacity="0" result="BackgroundImageFix"/>
<feColorMatrix in="SourceAlpha" type="matrix" values="0 0 0 0 0 0 0 0 0 0 0 0 0 0 0 0 0 0 127 0" result="hardAlpha"/>
<feOffset dy="3"/>
<feGaussianBlur stdDeviation="3"/>
<feColorMatrix type="matrix" values="0 0 0 0 0 0 0 0 0 0 0 0 0 0 0 0 0 0 0.161 0"/>
<feBlend mode="normal" in2="BackgroundImageFix" result="effect1_dropShadow_3645_98582"/>
<feBlend mode="normal" in="SourceGraphic" in2="effect1_dropShadow_3645_98582" result="shape"/>
</filter>
<filter id="filter1_d_3645_98582" x="49.7573" y="58.3301" width="179.786" height="52.5" filterUnits="userSpaceOnUse" color-interpolation-filters="sRGB">
<feFlood flood-opacity="0" result="BackgroundImageFix"/>
<feColorMatrix in="SourceAlpha" type="matrix" values="0 0 0 0 0 0 0 0 0 0 0 0 0 0 0 0 0 0 127 0" result="hardAlpha"/>
<feOffset dy="3"/>
<feGaussianBlur stdDeviation="3"/>
<feColorMatrix type="matrix" values="0 0 0 0 0 0 0 0 0 0 0 0 0 0 0 0 0 0 0.161 0"/>
<feBlend mode="normal" in2="BackgroundImageFix" result="effect1_dropShadow_3645_98582"/>
<feBlend mode="normal" in="SourceGraphic" in2="effect1_dropShadow_3645_98582" result="shape"/>
</filter>
<filter id="filter2_d_3645_98582" x="0" y="108.086" width="179.786" height="52.5" filterUnits="userSpaceOnUse" color-interpolation-filters="sRGB">
<feFlood flood-opacity="0" result="BackgroundImageFix"/>
<feColorMatrix in="SourceAlpha" type="matrix" values="0 0 0 0 0 0 0 0 0 0 0 0 0 0 0 0 0 0 127 0" result="hardAlpha"/>
<feOffset dy="3"/>
<feGaussianBlur stdDeviation="3"/>
<feColorMatrix type="matrix" values="0 0 0 0 0 0 0 0 0 0 0 0 0 0 0 0 0 0 0.161 0"/>
<feBlend mode="normal" in2="BackgroundImageFix" result="effect1_dropShadow_3645_98582"/>
<feBlend mode="normal" in="SourceGraphic" in2="effect1_dropShadow_3645_98582" result="shape"/>
</filter>
</defs>
</svg>
