<svg width="30" height="30" viewBox="0 0 30 30" fill="none" xmlns="http://www.w3.org/2000/svg">
<path fill-rule="evenodd" clip-rule="evenodd" d="M15 1.875C15.5178 1.875 15.9375 2.29473 15.9375 2.8125V18.3617L19.0246 15.2746C19.3907 14.9085 19.9843 14.9085 20.3504 15.2746C20.7165 15.6407 20.7165 16.2343 20.3504 16.6004L15.6629 21.2879C15.2968 21.654 14.7032 21.654 14.3371 21.2879L9.64959 16.6004C9.28347 16.2343 9.28347 15.6407 9.64959 15.2746C10.0157 14.9085 10.6093 14.9085 10.9754 15.2746L14.0625 18.3617V2.8125C14.0625 2.29473 14.4822 1.875 15 1.875ZM7.96875 11.25C7.59579 11.25 7.2381 11.3982 6.97438 11.6619C6.71066 11.9256 6.5625 12.2833 6.5625 12.6562V24.8438C6.5625 25.2167 6.71066 25.5744 6.97438 25.8381C7.2381 26.1018 7.59579 26.25 7.96875 26.25H22.0312C22.4042 26.25 22.7619 26.1018 23.0256 25.8381C23.2893 25.5744 23.4375 25.2167 23.4375 24.8438V12.6562C23.4375 12.2833 23.2893 11.9256 23.0256 11.6619C22.7619 11.3982 22.4042 11.25 22.0312 11.25H19.6875C19.1697 11.25 18.75 10.8303 18.75 10.3125C18.75 9.79473 19.1697 9.375 19.6875 9.375H22.0312C22.9015 9.375 23.7361 9.7207 24.3514 10.3361C24.9668 10.9514 25.3125 11.786 25.3125 12.6562V24.8438C25.3125 25.714 24.9668 26.5486 24.3514 27.1639C23.7361 27.7793 22.9015 28.125 22.0312 28.125H7.96875C7.09851 28.125 6.26391 27.7793 5.64856 27.1639C5.0332 26.5486 4.6875 25.714 4.6875 24.8438V12.6562C4.6875 11.786 5.0332 10.9514 5.64856 10.3361C6.26391 9.7207 7.09851 9.375 7.96875 9.375H10.3125C10.8303 9.375 11.25 9.79473 11.25 10.3125C11.25 10.8303 10.8303 11.25 10.3125 11.25H7.96875Z" fill="#8493B2"/>
</svg>
