<svg width="32" height="32" viewBox="0 0 32 32" fill="none" xmlns="http://www.w3.org/2000/svg">
<path fill-rule="evenodd" clip-rule="evenodd" d="M13.7441 1.00002L13.75 1L19.6264 1C19.963 1.00047 20.2963 1.06755 20.6069 1.19737C20.9175 1.32719 21.1994 1.51719 21.4362 1.75642L21.4386 1.75886L28.2589 8.69475C28.2593 8.69509 28.2596 8.69542 28.2599 8.69575C28.7342 9.17646 29.0001 9.82466 29 10.5C29 10.5001 29 10.5002 29 10.5003V21.25C29 23.2954 27.387 25 25.3156 25H22V27.25C22 29.2954 20.387 31 18.3156 31H6.6875C4.61376 31 3 29.2961 3 27.25V10.75L3.00002 10.7441C3.00582 9.75293 3.40216 8.80397 4.10306 8.10306C4.80397 7.40216 5.75293 7.00582 6.74414 7.00002L6.75 7H10V4.75L10 4.74414C10.0058 3.75293 10.4022 2.80397 11.1031 2.10306C11.804 1.40216 12.7529 1.00582 13.7441 1.00002ZM12 7V4.75325C12.0034 4.28935 12.1892 3.84536 12.5173 3.51728C12.8454 3.18919 13.2893 3.0034 13.7533 3H18.5V8.75C18.5 8.75398 18.5 8.75795 18.5001 8.76193C18.5087 9.48541 18.7999 10.1768 19.3116 10.6884C19.8232 11.2001 20.5146 11.4913 21.2381 11.4999C21.2399 11.5 21.2417 11.5 21.2435 11.5C21.2457 11.5 21.2478 11.5 21.25 11.5H27V21.25C27 22.2421 26.2318 23 25.3156 23H22V16.5086C22 16.5084 22 16.5083 22 16.5081C22 16.5064 22 16.5046 22 16.5028C22 16.5019 22 16.5009 22 16.5C22 16.4958 22 16.4917 21.9999 16.4875C21.9948 15.8185 21.7306 15.1771 21.2625 14.6983L21.2605 14.6964L14.4396 7.7598C14.4395 7.75972 14.4394 7.75964 14.4393 7.75956C14.2039 7.51956 13.9231 7.32881 13.6132 7.1984C13.3032 7.06796 12.9703 7.00051 12.634 7L12 7ZM11.5 9V14.75C11.5 14.754 11.5 14.758 11.5001 14.7619C11.5087 15.4854 11.7999 16.1768 12.3116 16.6884C12.8232 17.2001 13.5146 17.4913 14.2381 17.4999C14.242 17.5 14.246 17.5 14.25 17.5H20V27.25C20 28.2421 19.2318 29 18.3156 29H6.6875C5.76749 29 5 28.2414 5 27.25V10.7533C5.0034 10.2893 5.18919 9.84536 5.51728 9.51727C5.84536 9.18919 6.28935 9.0034 6.75325 9H11.5ZM19.2458 15.5L13.5 9.6568V14.7428C13.5036 14.9425 13.5845 15.133 13.7258 15.2742C13.867 15.4155 14.0575 15.4964 14.2572 15.5H19.2458ZM26.2458 9.5L20.5 3.6568V8.74279C20.5036 8.94242 20.5845 9.13296 20.7258 9.27423C20.867 9.4155 21.0576 9.49639 21.2572 9.5H26.2458Z" fill="#8493B2"/>
</svg>
