<svg width="69" height="39" viewBox="0 0 69 39" fill="none" xmlns="http://www.w3.org/2000/svg">
<path d="M2.31771 9.28H5.17029V28H2.31771V9.28ZM12.0058 28.191C11.2417 28.191 10.484 28.0573 9.73269 27.7899C8.98134 27.5224 8.44012 27.2232 8.10902 26.8921L9.12142 25.0774C9.38885 25.3193 9.80273 25.574 10.3631 25.8415C10.9361 26.0962 11.4837 26.2235 12.0058 26.2235C12.6808 26.2235 13.2284 26.0643 13.6486 25.746C14.0816 25.4276 14.2981 24.9882 14.2981 24.4279C14.2981 23.9949 14.1835 23.6193 13.9542 23.3009C13.725 22.9825 13.4449 22.7215 13.1137 22.5177C12.7826 22.3012 12.3115 22.0402 11.7002 21.7345C10.9743 21.378 10.4777 21.1105 10.2102 20.9322C8.97497 20.1045 8.35734 18.9584 8.35734 17.4939C8.35734 16.2841 8.75848 15.3608 9.56077 14.7241C10.3631 14.0746 11.3755 13.7499 12.598 13.7499C13.9097 13.7499 15.024 14.1256 15.9409 14.8769L14.9284 16.6152C14.6865 16.3605 14.3426 16.144 13.8969 15.9657C13.464 15.7747 12.9991 15.6792 12.5025 15.6792C11.8657 15.6792 11.3627 15.8256 10.9934 16.1185C10.6369 16.3987 10.4586 16.8189 10.4586 17.3793C10.4586 17.774 10.5732 18.1306 10.8024 18.449C11.0316 18.7546 11.3182 19.022 11.662 19.2513C12.0186 19.4805 12.4961 19.7607 13.0946 20.0918C13.6677 20.4101 14.1071 20.6648 14.4127 20.8558C14.7183 21.0341 15.0049 21.2506 15.2723 21.5053C15.6416 21.8364 15.9409 22.2312 16.1701 22.6896C16.3993 23.1481 16.5139 23.6511 16.5139 24.1987C16.5139 25.0519 16.3165 25.7778 15.9217 26.3763C15.5397 26.9749 15.0049 27.4269 14.3172 27.7326C13.6422 28.0382 12.8718 28.191 12.0058 28.191ZM22.2249 21.448L21.3462 19.4614L20.9451 21.448L19.6462 28H17.5258L20.4293 13.96H20.6586L24.5172 21.5435L25.6633 24.0841L26.8094 21.5435L30.5916 13.96H30.8017L33.8199 28H31.7186L30.3051 21.448L29.8848 19.4614L29.1208 21.448L25.7206 28H25.606L22.2249 21.448ZM40.6415 13.9409L47.4036 28H44.9394L43.736 25.2493H37.2986L36.0952 28H33.7074L40.4314 13.9409H40.6415ZM39.6864 19.9198L38.1582 23.32H42.8955L41.3865 19.9389L40.5651 18.0096H40.5269L39.6864 19.9198ZM55.3912 28L52.5641 22.6896C51.9783 22.7151 51.4562 22.7278 50.9977 22.7278H50.4629V28H48.3807V13.96H51.5708C53.1881 13.96 54.5189 14.2975 55.5631 14.9724C56.6074 15.6346 57.1295 16.7171 57.1295 18.2198C57.1295 19.1621 56.9066 19.9771 56.4609 20.6648C56.0279 21.3398 55.3785 21.8619 54.5125 22.2312L57.8554 28H55.3912ZM51.8191 20.9896C53.0671 20.9896 53.9203 20.7221 54.3788 20.1873C54.85 19.6397 55.0856 18.9902 55.0856 18.2389C55.0856 16.5706 53.9713 15.7365 51.7427 15.7365H50.4629V20.9896H51.8191ZM61.7502 15.832H58.159V13.96H67.4999V15.832H63.8705V28H61.7502V15.832Z" fill="#0D0225"/>
<path d="M51.7158 34.9209C51.4611 34.9209 51.2085 34.8763 50.9581 34.7871C50.7076 34.698 50.5272 34.5982 50.4169 34.4879L50.7543 33.883C50.8435 33.9636 50.9814 34.0485 51.1682 34.1377C51.3592 34.2226 51.5418 34.265 51.7158 34.265C51.9408 34.265 52.1233 34.212 52.2634 34.1058C52.4077 33.9997 52.4799 33.8533 52.4799 33.6665C52.4799 33.5222 52.4417 33.3969 52.3653 33.2908C52.2889 33.1847 52.1955 33.0977 52.0851 33.0297C51.9747 32.9576 51.8177 32.8706 51.6139 32.7687C51.372 32.6498 51.2064 32.5607 51.1173 32.5013C50.7055 32.2253 50.4996 31.8433 50.4996 31.3551C50.4996 30.9519 50.6334 30.6441 50.9008 30.4319C51.1682 30.2154 51.5057 30.1071 51.9132 30.1071C52.3504 30.1071 52.7218 30.2324 53.0275 30.4828L52.69 31.0622C52.6094 30.9773 52.4947 30.9052 52.3462 30.8457C52.2018 30.7821 52.0469 30.7502 51.8814 30.7502C51.6691 30.7502 51.5014 30.7991 51.3783 30.8967C51.2595 30.9901 51.2 31.1302 51.2 31.3169C51.2 31.4485 51.2383 31.5674 51.3147 31.6735C51.3911 31.7754 51.4866 31.8645 51.6012 31.9409C51.72 32.0173 51.8792 32.1107 52.0787 32.2211C52.2698 32.3272 52.4162 32.4121 52.5181 32.4758C52.62 32.5352 52.7155 32.6074 52.8046 32.6923C52.9277 32.8026 53.0275 32.9342 53.1039 33.0871C53.1803 33.2399 53.2185 33.4075 53.2185 33.5901C53.2185 33.8745 53.1527 34.1164 53.0211 34.316C52.8938 34.5155 52.7155 34.6662 52.4863 34.768C52.2613 34.8699 52.0045 34.9209 51.7158 34.9209ZM54.7539 34.9209C54.3507 34.9209 54.0726 34.802 53.9198 34.5643C53.7712 34.3266 53.6969 33.9955 53.6969 33.571V31.9346H54.3846V33.3991C54.3846 33.641 54.3973 33.8299 54.4228 33.9657C54.4525 34.0973 54.5077 34.195 54.5884 34.2586C54.6733 34.3223 54.7985 34.3542 54.964 34.3542C55.0829 34.3542 55.1975 34.3202 55.3079 34.2523C55.4182 34.1844 55.5074 34.0931 55.5753 33.9785C55.6475 33.8596 55.6836 33.7302 55.6836 33.5901V31.9346H56.3649V34.8572H55.8045L55.7281 34.4306C55.622 34.5961 55.4883 34.7192 55.327 34.7999C55.1699 34.8805 54.9789 34.9209 54.7539 34.9209ZM57.0615 31.9346H57.7492V32.5076C57.8171 32.3124 57.9275 32.1553 58.0803 32.0364C58.2331 31.9176 58.4072 31.8582 58.6024 31.8582C58.7383 31.8582 58.8317 31.8709 58.8826 31.8964L58.7871 32.5904C58.7489 32.5649 58.6661 32.5522 58.5388 32.5522C58.3393 32.5522 58.1567 32.6159 57.9912 32.7432C57.8299 32.8706 57.7492 33.0743 57.7492 33.3545V34.8572H57.0615V31.9346ZM58.7051 31.9346H59.4883L60.1187 33.2526L60.3224 33.7811L60.5262 33.2526L61.1502 31.9346H61.9143L60.3797 34.8572H60.246L58.7051 31.9346ZM63.4617 34.9209C63.1136 34.9209 62.8229 34.8529 62.5894 34.7171C62.3559 34.577 62.184 34.3924 62.0736 34.1631C61.9633 33.9297 61.9081 33.675 61.9081 33.3991C61.9081 33.0892 61.9718 32.8175 62.0991 32.584C62.2307 32.3506 62.4111 32.1723 62.6403 32.0492C62.8696 31.9218 63.1285 31.8582 63.4171 31.8582C63.8671 31.8582 64.2003 31.9834 64.4168 32.2338C64.6376 32.48 64.7479 32.8281 64.7479 33.2781C64.7479 33.3927 64.7416 33.5115 64.7288 33.6346H62.6276C62.6743 33.8936 62.7656 34.0804 62.9014 34.195C63.0415 34.3096 63.2346 34.3669 63.4808 34.3669C63.6846 34.3669 63.8522 34.3499 63.9838 34.316C64.1154 34.282 64.2364 34.2353 64.3468 34.1759L64.5569 34.6662C64.4508 34.7341 64.3064 34.7935 64.1239 34.8444C63.9414 34.8954 63.7207 34.9209 63.4617 34.9209ZM64.0793 33.1571C64.0836 32.8939 64.0263 32.7093 63.9074 32.6031C63.7886 32.4928 63.6188 32.4376 63.398 32.4376C62.9523 32.4376 62.6955 32.6774 62.6276 33.1571H64.0793ZM66.1104 34.9463L64.9006 31.9346H65.6774L66.3014 33.7938L66.4415 34.2459L66.5816 33.7938L67.2374 31.9346H67.9887L66.1932 36.4617H65.48L66.1104 34.9463Z" fill="url(#paint0_linear_639_2694)"/>
<defs>
<linearGradient id="paint0_linear_639_2694" x1="63.2442" y1="30.2143" x2="74.7139" y2="39.5187" gradientUnits="userSpaceOnUse">
<stop stop-color="#2D048A"/>
<stop offset="1" stop-color="#2D048A" stop-opacity="0"/>
</linearGradient>
</defs>
</svg>
