<svg width="32" height="32" viewBox="0 0 32 32" fill="none" xmlns="http://www.w3.org/2000/svg">
<rect width="32" height="32" fill="#1E1E1E"/>
<g id="Slide 16:9 - 124" clip-path="url(#clip0_404_1390)">
<rect width="1920" height="1080" transform="translate(-29 -489)" fill="#F7F9FF"/>
<g id="Group 1000000957">
<rect id="Rectangle 5559" x="-29" y="-489" width="90" height="1080" fill="white"/>
<g id="Group 1421">
<path id="Vector" d="M20.1507 15.8225C19.6355 15.4175 18.8688 15.093 17.8698 14.8577L15.6782 14.3411C15.3254 14.2592 15.038 14.1848 14.7983 14.1148C14.5549 14.0529 14.3188 13.9651 14.0941 13.8528C13.9556 13.7889 13.8392 13.6853 13.7597 13.5551C13.6801 13.425 13.6411 13.2741 13.6474 13.1218C13.6406 12.9455 13.6815 12.7707 13.7659 12.6158C13.8503 12.4609 13.975 12.3317 14.1268 12.2419C14.3288 12.114 14.5515 12.0223 14.7849 11.9709C15.0557 11.9113 15.3324 11.8828 15.6097 11.886C16.0717 11.8723 16.5314 11.9565 16.9586 12.1332L17.0256 12.1659C17.3341 12.3107 17.5807 12.561 17.7209 12.8716C17.8385 13.1448 18.0327 13.378 18.28 13.5431C18.5273 13.7082 18.8171 13.7982 19.1144 13.8022H19.2067C19.4617 13.8024 19.7125 13.7381 19.9359 13.6152C20.1593 13.4923 20.3479 13.3149 20.4842 13.0994C20.62 12.8877 20.7 12.6451 20.7166 12.3941C20.7333 12.1431 20.6861 11.892 20.5794 11.6642C20.311 11.0873 19.9014 10.5875 19.3884 10.2111C18.794 9.77267 18.1176 9.45825 17.3993 9.28652V8.87262C17.3993 8.47776 17.2424 8.09907 16.9632 7.81986C16.684 7.54065 16.3053 7.38379 15.9105 7.38379C15.5156 7.38379 15.1369 7.54065 14.8577 7.81986C14.5785 8.09907 14.4216 8.47776 14.4216 8.87262V9.2091C13.4107 9.37436 12.5874 9.73763 11.9695 10.293C11.5394 10.6674 11.1966 11.1315 10.9651 11.6526C10.7336 12.1737 10.6191 12.7392 10.6296 13.3093C10.6296 14.6359 11.0986 15.6304 12.0246 16.2647C12.5293 16.6146 13.3899 16.9272 14.6524 17.219L14.8727 17.2696L16.2261 17.5674C16.5239 17.6329 16.7844 17.6969 17.0077 17.7654C17.3054 17.8465 17.5923 17.963 17.8623 18.1123C17.9878 18.1797 18.092 18.2808 18.1633 18.4041C18.2345 18.5275 18.27 18.6682 18.2658 18.8106C18.2658 19.3853 17.9755 19.753 17.3546 19.9704C17.2488 20.0061 17.1409 20.0354 17.0316 20.0582C16.6663 20.1296 16.2946 20.1631 15.9224 20.158C15.5467 20.1641 15.172 20.1185 14.8087 20.0225C14.4709 19.9379 14.1661 19.7544 13.9333 19.4955C13.8358 19.373 13.7584 19.2358 13.704 19.089C13.6268 18.8917 13.5104 18.7121 13.3617 18.561C13.2131 18.41 13.0354 18.2907 12.8393 18.2104C12.6433 18.13 12.4329 18.0903 12.2211 18.0936C12.0092 18.0969 11.8002 18.1431 11.6067 18.2295C11.4133 18.3159 11.2393 18.4407 11.0955 18.5963C10.9516 18.7518 10.8408 18.935 10.7698 19.1346C10.6988 19.3342 10.669 19.5462 10.6822 19.7577C10.6955 19.9692 10.7515 20.1757 10.8469 20.3649C11.1099 20.8935 11.4891 21.3557 11.9561 21.7168C12.6781 22.2625 13.5242 22.6206 14.4187 22.759V23.1252C14.4187 23.5201 14.5755 23.8988 14.8547 24.178C15.1339 24.4572 15.5126 24.6141 15.9075 24.6141C16.3023 24.6141 16.681 24.4572 16.9603 24.178C17.2395 23.8988 17.3963 23.5201 17.3963 23.1252V22.7917C18.4385 22.625 19.2946 22.2557 19.9586 21.6885C20.4133 21.3167 20.778 20.8469 21.0255 20.3142C21.273 19.7816 21.3969 19.1998 21.3879 18.6126C21.3834 17.4081 20.9695 16.4687 20.1507 15.8225Z" fill="#8493B2"/>
<path id="Vector_2" d="M16 31C24.2843 31 31 24.2843 31 16C31 7.71573 24.2843 1 16 1C7.71573 1 1 7.71573 1 16C1 24.2843 7.71573 31 16 31Z" stroke="#8493B2" stroke-width="1.8" stroke-linecap="round" stroke-linejoin="round"/>
</g>
</g>
</g>
<defs>
<clipPath id="clip0_404_1390">
<rect width="1920" height="1080" fill="white" transform="translate(-29 -489)"/>
</clipPath>
</defs>
</svg>
