<svg width="32" height="32" viewBox="0 0 32 32" fill="none" xmlns="http://www.w3.org/2000/svg">
<path fill-rule="evenodd" clip-rule="evenodd" d="M12.2999 5.03469C12.7472 3.53257 14.059 2 16.0019 2C17.9454 2 19.2559 3.53263 19.7065 5.03191C19.7088 5.03471 19.7118 5.03824 19.7157 5.0423C19.7249 5.05193 19.7354 5.06079 19.7453 5.06766C19.7528 5.07289 19.7574 5.07514 19.7579 5.07541C20.889 5.54109 22.2202 6.28494 23.2614 7.64685C24.311 9.01971 24.9938 10.9255 24.9938 13.5844C24.9938 16.2354 25.2735 17.6891 25.6854 18.6871C26.0465 19.5621 26.5214 20.1373 27.1971 20.9558C27.2958 21.0753 27.3988 21.2 27.5063 21.3317L27.5066 21.332C28.752 22.8575 27.576 25 25.6576 25H21.0019C21.0019 26.3261 20.4752 27.5979 19.5375 28.5355C18.5998 29.4732 17.328 30 16.0019 30C14.6759 30 13.4041 29.4732 12.4664 28.5355C11.5287 27.5979 11.0019 26.3261 11.0019 25H6.35257C4.43768 25 3.24185 22.8684 4.49756 21.3317C4.60517 21.2 4.70822 21.0751 4.80699 20.9555C5.48262 20.1372 5.95756 19.5619 6.31901 18.6868C6.73126 17.6888 7.01162 16.235 7.01319 13.5844M13.0019 25C13.0019 25.7956 13.318 26.5587 13.8806 27.1213C14.4432 27.6839 15.2063 28 16.0019 28C16.7976 28 17.5607 27.6839 18.1233 27.1213C18.6859 26.5587 19.0019 25.7956 19.0019 25H13.0019ZM6.35257 23C6.14704 23 6.05451 22.9054 6.01735 22.8326C5.99593 22.7907 5.98953 22.7499 5.99261 22.7159C5.99533 22.6858 6.00647 22.6459 6.04627 22.5972L6.04633 22.5971C6.14292 22.4789 6.24022 22.3616 6.33763 22.2442C7.00796 21.4363 7.68356 20.6221 8.16753 19.4504C8.72385 18.1035 9.0116 16.3496 9.01319 13.585V13.5844C9.01319 11.2809 9.59627 9.82412 10.3334 8.8603C11.0787 7.8857 12.0553 7.31817 13.0106 6.92476L13.0108 6.92467C13.52 6.71523 14.028 6.24864 14.2115 5.62348L14.2122 5.62099C14.4968 4.64202 15.232 4 16.0019 4C16.7719 4 17.5074 4.64155 17.7956 5.62253L17.7964 5.62507C17.9788 6.23981 18.4814 6.71295 18.9963 6.9247C19.9495 7.31715 20.9266 7.88579 21.6726 8.86158C22.4103 9.82654 22.9938 11.2839 22.9938 13.5844C22.9938 16.349 23.2807 18.1031 23.8366 19.4501C24.3203 20.6221 24.996 21.4364 25.6664 22.2444C25.7638 22.3617 25.861 22.4789 25.9576 22.5971C26.0202 22.674 26.0252 22.7537 25.9846 22.8338C25.9467 22.9086 25.8557 23 25.6576 23H6.35257ZM12.2999 5.03469C12.2982 5.03673 12.2961 5.03915 12.2934 5.04189C12.2849 5.05071 12.2748 5.05923 12.2648 5.06615C12.2555 5.07257 12.2499 5.07508 12.2499 5.07508L12.2493 5.07533C11.1178 5.54129 9.78603 6.28375 8.74473 7.64533C7.69519 9.01765 7.01329 10.9232 7.01319 13.5838" fill="#9794AB"/>
</svg>
