<svg width="32" height="32" viewBox="0 0 32 32" fill="none" xmlns="http://www.w3.org/2000/svg">
<path d="M16.0005 16C12.6942 16 9.7817 12.8937 9.50045 9.075C9.3567 7.1375 9.9567 5.34375 11.188 4.025C12.4005 2.71875 14.113 2 16.0005 2C17.8755 2 19.5817 2.725 20.8005 4.0375C22.038 5.36875 22.638 7.15625 22.4942 9.075C22.213 12.8937 19.3005 16 16.0005 16ZM16.0005 4C14.6755 4 13.4817 4.49375 12.6505 5.3875C11.8067 6.29375 11.3942 7.55625 11.4942 8.93125C11.6942 11.6812 13.7567 14.0063 15.9942 14.0063C18.2317 14.0063 20.2942 11.6812 20.4942 8.93125C20.5942 7.575 20.1817 6.31875 19.3255 5.4C18.5005 4.49375 17.313 4 16.0005 4Z" fill="#8493B2"/>
<path d="M27.0005 29.9999H5.00046C4.40046 29.9999 3.86296 29.7499 3.48796 29.3061C3.08171 28.8186 2.91921 28.1561 3.03796 27.4874C3.56296 24.5624 5.21297 22.0999 7.80047 20.3811C10.1005 18.8499 13.013 18.0061 16.0005 18.0061C18.988 18.0061 21.9005 18.8499 24.2005 20.3811C26.788 22.1061 28.438 24.5624 28.963 27.4874C29.0817 28.1561 28.9192 28.8186 28.513 29.3061C28.138 29.7499 27.6005 29.9999 27.0005 29.9999ZM5.01296 27.9999H26.988C27.0005 27.9686 27.0067 27.9186 26.9942 27.8374C26.0255 22.4561 20.613 19.9999 16.0005 19.9999C11.388 19.9999 5.97546 22.4561 5.00671 27.8374C4.99421 27.9186 5.00046 27.9686 5.01296 27.9999Z" fill="#8493B2"/>
</svg>
