<svg width="30" height="30" viewBox="0 0 30 30" fill="none" xmlns="http://www.w3.org/2000/svg">
<path d="M17.5098 28.4766H12.5C12.4942 28.4766 12.4883 28.4766 12.4824 28.4766C11.7324 28.4648 11.1055 27.9434 10.9531 27.2109C10.9473 27.1934 10.9473 27.1699 10.9414 27.1523L10.5489 24.3516H10.543C10.0625 24.1172 9.59377 23.8477 9.15432 23.5371L6.52346 24.5977C6.5176 24.5977 6.51174 24.6035 6.50588 24.6035C5.79104 24.873 4.9883 24.5977 4.59573 23.9355C4.59573 23.9297 4.58987 23.9297 4.58987 23.9238L2.08205 19.5879C1.69534 18.9258 1.84768 18.082 2.43948 17.5898C2.44534 17.584 2.45119 17.5781 2.45705 17.5723L4.69534 15.8145L4.68948 15.8086C4.66604 15.5156 4.65432 15.252 4.65432 14.9941C4.65432 14.7305 4.66604 14.4668 4.68948 14.1855L2.46291 12.4395C2.45119 12.4336 2.44534 12.4277 2.43948 12.416C1.8594 11.9238 1.71291 11.0859 2.09377 10.4297L4.60159 6.09375C4.60159 6.08789 4.60744 6.08789 4.60744 6.08203C5.00002 5.42578 5.80276 5.14453 6.5176 5.41406C6.52346 5.41406 6.52932 5.41992 6.53518 5.41992L9.16604 6.48047C9.61135 6.17578 10.0742 5.90625 10.5547 5.67188L10.9473 2.86523C10.9473 2.85352 10.9531 2.8418 10.9531 2.83594C11.0762 2.0918 11.7207 1.54102 12.4766 1.52344C12.4824 1.52344 12.4883 1.52344 12.4942 1.52344H17.5039C17.5098 1.52344 17.5156 1.52344 17.5215 1.52344C18.2715 1.53516 18.8985 2.05664 19.0508 2.78906C19.0567 2.80664 19.0567 2.83008 19.0625 2.84766L19.4551 5.64844H19.461C19.9414 5.88281 20.4102 6.15234 20.8496 6.46289L23.4805 5.40234C23.4864 5.40234 23.4922 5.39648 23.4981 5.39648C24.2129 5.12109 25.0156 5.40234 25.4082 6.06445C25.4082 6.07031 25.4141 6.07031 25.4141 6.07617L27.9219 10.4121C28.3086 11.0742 28.1563 11.918 27.5645 12.4102C27.5586 12.416 27.5528 12.4219 27.5469 12.4277L25.3086 14.1855C25.3086 14.1914 25.3086 14.1973 25.3086 14.1973C25.3321 14.4961 25.3438 14.7598 25.3438 15V15.0059C25.3438 15.2695 25.3321 15.5391 25.3086 15.8027L27.5469 17.5547C27.5528 17.5605 27.5586 17.5664 27.5645 17.5723C28.1563 18.0645 28.3086 18.9023 27.9219 19.5703L25.4141 23.9062C25.4141 23.9121 25.4082 23.9121 25.4082 23.918C25.0156 24.5742 24.2129 24.8555 23.4981 24.5859C23.4922 24.5859 23.4864 24.5801 23.4805 24.5801L20.8496 23.5195C20.4043 23.8242 19.9414 24.0938 19.461 24.3281L19.0684 27.1348C19.0684 27.1465 19.0625 27.1582 19.0625 27.1641C18.9336 27.9082 18.2891 28.459 17.5332 28.4766C17.5215 28.4766 17.5156 28.4766 17.5098 28.4766ZM12.7578 26.6016H17.2461L17.6035 24.0645C17.6914 23.4492 18.0781 22.916 18.6406 22.6406C19.0391 22.4473 19.4199 22.2246 19.7832 21.9785C20.2989 21.6211 20.961 21.5449 21.5528 21.7793L23.9317 22.7344L26.1699 18.8613L23.7324 16.957C23.4688 16.752 23.334 16.418 23.3809 16.0898C23.4336 15.7324 23.4571 15.3633 23.4629 15C23.4629 14.8066 23.4512 14.5957 23.4336 14.3496C23.375 13.7168 23.6446 13.1016 24.1426 12.709L26.1641 11.1211L23.9258 7.24805L21.5469 8.20312C20.961 8.4375 20.2989 8.36719 19.7774 8.00391C19.4199 7.75195 19.0391 7.5293 18.6465 7.3418C18.084 7.07227 17.6914 6.53906 17.5977 5.91797L17.2461 3.39844H12.7578L12.4004 5.93555C12.3125 6.55078 11.9258 7.08398 11.3633 7.35938C10.9649 7.55273 10.584 7.77539 10.2207 8.02148C9.7051 8.37891 9.04299 8.45508 8.45119 8.2207L6.08401 7.26562L3.84573 11.1387L5.85549 12.7207C6.35354 13.1133 6.61721 13.7227 6.56448 14.3555C6.54104 14.584 6.53518 14.7949 6.53518 15C6.53518 15.1992 6.5469 15.4102 6.56448 15.6504C6.62307 16.2832 6.3594 16.8984 5.86135 17.291L3.83987 18.8789L6.07815 22.752L8.45119 21.7969C9.03713 21.5625 9.69924 21.6328 10.2207 21.9961C10.5781 22.248 10.959 22.4707 11.3516 22.6582C11.9141 22.9277 12.3067 23.4609 12.4004 24.082L12.7578 26.6016ZM15.0078 19.6875C14.8555 19.6875 14.6973 19.6816 14.5449 19.6641C13.2969 19.541 12.1778 18.9375 11.3809 17.9707C10.584 17.0039 10.2149 15.7852 10.3379 14.5371C10.5899 11.9648 12.8926 10.0781 15.4649 10.3301C17.6797 10.5527 19.4434 12.3223 19.666 14.5312C19.6953 14.8359 19.6953 15.1465 19.666 15.457C19.4258 17.877 17.3867 19.6875 15.0078 19.6875ZM14.9961 12.1875C14.3457 12.1875 13.7246 12.4102 13.2149 12.8262C12.6348 13.3008 12.2715 13.9746 12.2012 14.7246C12.125 15.4746 12.3477 16.2012 12.8281 16.7871C13.3028 17.3672 13.9766 17.7305 14.7266 17.8008C16.2676 17.9531 17.6504 16.8223 17.8028 15.2754C17.8203 15.0938 17.8203 14.9062 17.8028 14.7246C17.668 13.3945 16.6074 12.334 15.2774 12.1992C15.1836 12.1934 15.0899 12.1875 14.9961 12.1875Z" fill="#8493B2"/>
</svg>
