<svg width="17" height="16" viewBox="0 0 17 16" fill="none" xmlns="http://www.w3.org/2000/svg">
<path fill-rule="evenodd" clip-rule="evenodd" d="M2.24719 4C2.24719 3.44667 2.69386 3 3.24719 3C3.80053 3 4.24719 3.44667 4.24719 4C4.24719 4.55333 3.80053 5 3.24719 5C2.69386 5 2.24719 4.55333 2.24719 4ZM2.24719 8C2.24719 7.44667 2.69386 7 3.24719 7C3.80053 7 4.24719 7.44667 4.24719 8C4.24719 8.55333 3.80053 9 3.24719 9C2.69386 9 2.24719 8.55333 2.24719 8ZM3.24719 11C2.69386 11 2.24719 11.4533 2.24719 12C2.24719 12.5467 2.70053 13 3.24719 13C3.79386 13 4.24719 12.5467 4.24719 12C4.24719 11.4533 3.80053 11 3.24719 11ZM13.9139 12.6667H5.91386C5.54719 12.6667 5.24719 12.3667 5.24719 12C5.24719 11.6333 5.54719 11.3333 5.91386 11.3333H13.9139C14.2805 11.3333 14.5805 11.6333 14.5805 12C14.5805 12.3667 14.2805 12.6667 13.9139 12.6667ZM5.91386 8.66667H13.9139C14.2805 8.66667 14.5805 8.36667 14.5805 8C14.5805 7.63333 14.2805 7.33333 13.9139 7.33333H5.91386C5.54719 7.33333 5.24719 7.63333 5.24719 8C5.24719 8.36667 5.54719 8.66667 5.91386 8.66667ZM5.91386 4.66667C5.54719 4.66667 5.24719 4.36667 5.24719 4C5.24719 3.63333 5.54719 3.33333 5.91386 3.33333H13.9139C14.2805 3.33333 14.5805 3.63333 14.5805 4C14.5805 4.36667 14.2805 4.66667 13.9139 4.66667H5.91386Z" fill="#9794AB"/>
</svg>
